<svg xmlns="http://www.w3.org/2000/svg" viewBox="0 0 800 450"><defs><linearGradient id="f" y2="1"><stop stop-color="#1c3652"/><stop offset="1" stop-color="#d17a4b"/></linearGradient><linearGradient id="car"><stop stop-color="#f3f5ed"/><stop offset="1" stop-color="#e24d2f"/></linearGradient></defs><rect width="800" height="450" fill="url(#f)"/><path d="M0 245h800v205H0z" fill="#282f36"/><path d="M0 345 800 285v165H0z" fill="#4d5659"/><path d="M0 391h800" stroke="#f7f5dc" stroke-width="7" stroke-dasharray="40 28"/><g transform="translate(160 176) rotate(-7)"><path d="M22 141 130 70h220l125 71-110 58H95z" fill="url(#car)" stroke="#fff0a9" stroke-width="5"/><path d="m131 70 57-34h119l74 34z" fill="#182b3a" stroke="#afd7e1" stroke-width="5"/><path d="M187 36h66v34h-100zM260 36h42l61 34H260z" fill="#4e6e7c"/><circle cx="128" cy="190" r="28" fill="#090b0e" stroke="#c8d1d3" stroke-width="9"/><circle cx="389" cy="173" r="28" fill="#090b0e" stroke="#c8d1d3" stroke-width="9"/><path d="M83 126H-30M448 126h110" stroke="#ff6a00" stroke-width="8"/></g></svg>