<svg xmlns="http://www.w3.org/2000/svg" viewBox="0 0 800 450"><defs><linearGradient id="q" y2="1"><stop stop-color="#5b9eb2"/><stop offset="1" stop-color="#d9ad72"/></linearGradient><linearGradient id="car"><stop stop-color="#f2f3eb"/><stop offset="1" stop-color="#55716e"/></linearGradient></defs><rect width="800" height="450" fill="url(#q)"/><path d="M0 255h800v195H0z" fill="#394548"/><path d="M0 340 800 265v185H0z" fill="#687775"/><path d="M0 388h800" stroke="#fff0b1" stroke-width="7" stroke-dasharray="45 30"/><path d="M80 255v-110M150 255V95M680 255V115M750 255V70" stroke="#e9f0e0" stroke-width="13" opacity=".7"/><g transform="translate(165 173) rotate(-4)"><path d="M30 130 84 62l225-21 108 68-35 80H40z" fill="url(#car)" stroke="#e9ffff" stroke-width="5"/><path d="m130 62 45-49h116l74 49z" fill="#182d3a" stroke="#b9e7e5" stroke-width="5"/><path d="M177 13h65v49h-95zM248 13h43l62 49H248z" fill="#507477"/><circle cx="105" cy="187" r="36" fill="#090c0e" stroke="#dce3df" stroke-width="10"/><circle cx="371" cy="168" r="36" fill="#090c0e" stroke="#dce3df" stroke-width="10"/><path d="M38 117H-45M415 117h83" stroke="#ff6a00" stroke-width="8"/></g></svg>